<svg width="40" height="40" viewBox="0 0 40 40" fill="none" xmlns="http://www.w3.org/2000/svg">
    <path d="M10.325 1.98352C12.0291 0.690644 14.111 -0.00597107 16.25 0.00101571C16.9885 -0.0148537 17.7191 0.155457 18.3745 0.496246C19.0298 0.837035 19.5889 1.33733 20 1.95102C20.4111 1.33733 20.9702 0.837035 21.6255 0.496246C22.2809 0.155457 23.0115 -0.0148537 23.75 0.00101571C25.889 -0.00597107 27.9709 0.690644 29.675 1.98352C30.9875 3.00352 32 4.41602 32.3575 6.12352C33.1775 6.18602 33.9275 6.52602 34.5575 7.03852C35.5125 7.81352 36.2075 8.97602 36.645 10.206C37.33 12.1185 37.515 14.556 36.805 16.631C36.985 16.716 37.1617 16.816 37.335 16.931C38.0225 17.3885 38.545 18.0435 38.93 18.816C39.6875 20.3285 40 22.4385 40 25.001C40 27.8535 38.9125 29.7685 37.5325 30.951C36.7684 31.6039 35.8682 32.078 34.8975 32.3385C34.6475 33.7335 33.9475 35.3485 32.85 36.7185C31.425 38.506 29.215 40.001 26.25 40.001C23.9 40.001 22.03 38.701 20.815 37.426C20.5234 37.1227 20.2511 36.8012 20 36.4635C19.7489 36.8012 19.4766 37.1227 19.185 37.426C17.97 38.701 16.1025 40.001 13.75 40.001C10.785 40.001 8.5775 38.506 7.15 36.7185C6.12465 35.4448 5.42222 33.9421 5.1025 32.3385C4.13182 32.078 3.23158 31.6039 2.4675 30.951C1.0875 29.7685 0 27.851 0 25.001C0 22.4385 0.315 20.326 1.07 18.816C1.42583 18.0571 1.97612 17.4059 2.665 16.9285C2.83553 16.8195 3.01253 16.721 3.195 16.6335C2.485 14.5535 2.67 12.1185 3.355 10.206C3.7925 8.97602 4.4875 7.81352 5.4425 7.03852C6.0725 6.52602 6.8225 6.18852 7.6425 6.12352C8.0025 4.41602 9.0125 3.00352 10.325 1.98352ZM18.75 6.25102V6.22602L18.745 6.10102C18.7097 5.44908 18.58 4.80571 18.36 4.19102C18.2064 3.72572 17.9412 3.30514 17.5875 2.96602C17.2182 2.64447 16.7391 2.47788 16.25 2.50102C14.6671 2.49376 13.1253 3.00477 11.86 3.95602C10.7 4.85852 10 6.08102 10 7.50102C9.99985 7.69898 9.95269 7.89407 9.86239 8.07024C9.77209 8.2464 9.64125 8.3986 9.48063 8.51431C9.32 8.63002 9.13419 8.70592 8.9385 8.73577C8.7428 8.76562 8.54282 8.74857 8.355 8.68602C7.885 8.53102 7.465 8.61852 7.0175 8.97852C6.5275 9.37852 6.05 10.0885 5.7075 11.046C5.01 13.001 5.0825 15.3685 6.04 16.8085C6.17675 17.0136 6.24981 17.2545 6.25 17.501H8.125C9.61684 17.501 11.0476 18.0937 12.1025 19.1485C13.1574 20.2034 13.75 21.6342 13.75 23.126V23.9635C14.584 24.2584 15.2869 24.8386 15.7345 25.6016C16.1821 26.3646 16.3456 27.2613 16.196 28.1332C16.0464 29.0051 15.5934 29.796 14.9171 30.3661C14.2407 30.9363 13.3846 31.2491 12.5 31.2491C11.6154 31.2491 10.7593 30.9363 10.0829 30.3661C9.40659 29.796 8.95359 29.0051 8.80401 28.1332C8.65442 27.2613 8.81786 26.3646 9.26546 25.6016C9.71306 24.8386 10.416 24.2584 11.25 23.9635V23.126C11.25 21.401 9.85 20.001 8.125 20.001H3.75C3.60056 20.0007 3.45238 19.9736 3.3125 19.921L3.305 19.936C2.81 20.9235 2.5 22.5635 2.5 25.001C2.5 27.1485 3.2875 28.3585 4.095 29.051C4.9625 29.796 5.925 30.001 6.25 30.001C6.58152 30.001 6.89946 30.1327 7.13388 30.3671C7.3683 30.6016 7.5 30.9195 7.5 31.251C7.5 32.171 8 33.7785 9.1 35.1585C10.1725 36.496 11.715 37.501 13.75 37.501C15.15 37.501 16.405 36.7185 17.375 35.701C17.8525 35.201 18.225 34.6835 18.4675 34.2585C18.5776 34.0699 18.6721 33.8726 18.75 33.6685V13.751H16.0375C15.7426 14.585 15.1624 15.288 14.3994 15.7356C13.6364 16.1832 12.7397 16.3466 11.8678 16.197C10.996 16.0474 10.205 15.5944 9.63487 14.9181C9.06469 14.2418 8.75197 13.3856 8.75197 12.501C8.75197 11.6164 9.06469 10.7603 9.63487 10.0839C10.205 9.40761 10.996 8.95461 11.8678 8.80502C12.7397 8.65543 13.6364 8.81888 14.3994 9.26648C15.1624 9.71407 15.7426 10.417 16.0375 11.251H18.75V6.25102ZM21.25 31.2485V33.666L21.28 33.7485C21.3267 33.8735 21.41 34.0427 21.53 34.256C21.7775 34.681 22.1475 35.1985 22.6225 35.6985C23.595 36.716 24.8525 37.4985 26.25 37.4985C28.285 37.4985 29.8275 36.4935 30.9 35.156C32 33.776 32.5 32.1685 32.5 31.2485C32.5 30.917 32.6317 30.5991 32.8661 30.3646C33.1005 30.1302 33.4185 29.9985 33.75 29.9985C34.075 29.9985 35.0375 29.7935 35.905 29.0485C36.7125 28.356 37.5 27.146 37.5 24.9985C37.5 22.561 37.1875 20.9235 36.695 19.9335C36.5326 19.5634 36.2735 19.2439 35.945 19.0085C35.6633 18.829 35.3338 18.7392 35 18.751C34.7739 18.7509 34.5521 18.6895 34.3581 18.5732C34.1642 18.457 34.0054 18.2904 33.8987 18.091C33.7919 17.8917 33.7413 17.6671 33.7521 17.4413C33.7629 17.2154 33.8347 16.9968 33.96 16.8085C34.92 15.3685 34.99 13.001 34.2925 11.046C33.95 10.0885 33.4725 9.37602 32.9825 8.97852C32.535 8.61852 32.115 8.52852 31.645 8.68602C31.4572 8.74857 31.2572 8.76562 31.0615 8.73577C30.8658 8.70592 30.68 8.63002 30.5194 8.51431C30.3588 8.3986 30.2279 8.2464 30.1376 8.07024C30.0473 7.89407 30.0002 7.69898 30 7.50102C30 6.08102 29.3 4.85852 28.1375 3.95602C26.8729 3.00529 25.3321 2.4943 23.75 2.50102C23.2609 2.47788 22.7818 2.64447 22.4125 2.96602C22.0579 3.30486 21.7918 3.72547 21.6375 4.19102C21.4004 4.84427 21.2695 5.53133 21.25 6.22602V28.751H23.125C24.85 28.751 26.25 27.351 26.25 25.626V21.0385C25.416 20.7436 24.7131 20.1634 24.2655 19.4004C23.8179 18.6374 23.6544 17.7407 23.804 16.8689C23.9536 15.997 24.4066 15.2061 25.0829 14.6359C25.7593 14.0657 26.6154 13.753 27.5 13.753C28.3846 13.753 29.2407 14.0657 29.9171 14.6359C30.5934 15.2061 31.0464 15.997 31.196 16.8689C31.3456 17.7407 31.1821 18.6374 30.7345 19.4004C30.2869 20.1634 29.584 20.7436 28.75 21.0385V25.626C28.75 27.1179 28.1574 28.5486 27.1025 29.6035C26.0476 30.6584 24.6168 31.251 23.125 31.251L21.25 31.2485ZM11.25 12.501C11.25 12.8325 11.3817 13.1505 11.6161 13.3849C11.8505 13.6193 12.1685 13.751 12.5 13.751C12.8315 13.751 13.1495 13.6193 13.3839 13.3849C13.6183 13.1505 13.75 12.8325 13.75 12.501C13.75 12.1695 13.6183 11.8516 13.3839 11.6171C13.1495 11.3827 12.8315 11.251 12.5 11.251C12.1685 11.251 11.8505 11.3827 11.6161 11.6171C11.3817 11.8516 11.25 12.1695 11.25 12.501ZM27.5 18.751C27.8315 18.751 28.1495 18.6193 28.3839 18.3849C28.6183 18.1505 28.75 17.8325 28.75 17.501C28.75 17.1695 28.6183 16.8516 28.3839 16.6171C28.1495 16.3827 27.8315 16.251 27.5 16.251C27.1685 16.251 26.8505 16.3827 26.6161 16.6171C26.3817 16.8516 26.25 17.1695 26.25 17.501C26.25 17.8325 26.3817 18.1505 26.6161 18.3849C26.8505 18.6193 27.1685 18.751 27.5 18.751ZM12.5 26.251C12.1685 26.251 11.8505 26.3827 11.6161 26.6171C11.3817 26.8516 11.25 27.1695 11.25 27.501C11.25 27.8325 11.3817 28.1505 11.6161 28.3849C11.8505 28.6193 12.1685 28.751 12.5 28.751C12.8315 28.751 13.1495 28.6193 13.3839 28.3849C13.6183 28.1505 13.75 27.8325 13.75 27.501C13.75 27.1695 13.6183 26.8516 13.3839 26.6171C13.1495 26.3827 12.8315 26.251 12.5 26.251Z" fill="#22AED1"/>
</svg>
