<svg width="40" height="33" viewBox="0 0 40 33" fill="none" xmlns="http://www.w3.org/2000/svg">
    <path d="M29.25 0C27 0 22.5 1.25 20 5.25C17.5 1.25 13 0 10.5 0C4.75 0 0 4.75 0 10.5C0 20.5 18.5 31.75 19.25 32.25L20 32.75L20.75 32.25C21.5 31.75 40 20.25 40 10.5C40 4.75 35.25 0 29.25 0ZM20 29.75C14.5 26.25 2.5 17.25 2.5 10.5C2.5 6 6.25 2.5 10.5 2.5C10.75 2.5 16.75 2.75 18.75 8.5L20 12L21.25 8.5C23.25 2.75 29.25 2.5 29.5 2.5C33.75 2.5 37.5 6 37.5 10.5C37.5 17.25 25.5 26.25 20 29.75Z" fill="#22AED1"/>
    <path d="M20 29.75C14.5 26.25 2.5 17.25 2.5 10.5C2.5 6 6.25 2.5 10.5 2.5C10.75 2.5 16.75 2.75 18.75 8.5L20 12L21.25 8.5C23.25 2.75 29.25 2.5 29.5 2.5C33.75 2.5 37.5 6 37.5 10.5C37.5 17.25 25.5 26.25 20 29.75Z" fill="#22AED1"/>
    <path d="M35.3756 11.4045C35.3756 8.86916 35.0587 4.43249 28.0868 5.38333" stroke="white" stroke-width="2.22774" stroke-linecap="round"/>
</svg>
