<svg width="20" height="21" viewBox="0 0 20 21" fill="none" xmlns="http://www.w3.org/2000/svg">
    <path d="M19.5114 8.82109L11.1781 0.487769C10.8656 0.175445 10.4418 0 10 0C9.55816 0 9.13441 0.175445 8.82188 0.487769L0.488551 8.82109C0.333035 8.97546 0.209759 9.15919 0.125889 9.36163C0.0420193 9.56406 -0.000769433 9.78114 1.04724e-05 10.0003V20.0002C1.04724e-05 20.2213 0.0878079 20.4332 0.244088 20.5895C0.400368 20.7458 0.612329 20.8336 0.833343 20.8336H7.5C7.72102 20.8336 7.93298 20.7458 8.08926 20.5895C8.24554 20.4332 8.33333 20.2213 8.33333 20.0002V14.1669H11.6667V20.0002C11.6667 20.2213 11.7545 20.4332 11.9107 20.5895C12.067 20.7458 12.279 20.8336 12.5 20.8336H19.1667C19.3877 20.8336 19.5996 20.7458 19.7559 20.5895C19.9122 20.4332 20 20.2213 20 20.0002V10.0003C20.0008 9.78114 19.958 9.56406 19.8741 9.36163C19.7902 9.15919 19.667 8.97546 19.5114 8.82109ZM18.3333 19.1669H13.3333V13.3336C13.3333 13.1126 13.2455 12.9006 13.0893 12.7443C12.933 12.5881 12.721 12.5003 12.5 12.5003H7.5C7.27899 12.5003 7.06703 12.5881 6.91075 12.7443C6.75447 12.9006 6.66667 13.1126 6.66667 13.3336V19.1669H1.66668V10.0003L10 1.66693L18.3333 10.0003V19.1669Z" fill="#FF7C1D"/>
</svg>
