<svg width="40" height="36" viewBox="0 0 40 36" fill="none" xmlns="http://www.w3.org/2000/svg">
    <path d="M20 8.88889C22.4546 8.88889 24.4444 6.89904 24.4444 4.44444C24.4444 1.98985 22.4546 0 20 0C17.5454 0 15.5555 1.98985 15.5555 4.44444C15.5555 6.89904 17.5454 8.88889 20 8.88889Z" fill="#22AED1"/>
    <path d="M40 24.3111C40 23.2 39.2 22.2444 38.1111 22.1333C33.9333 21.6666 30.3555 19.6222 27.5555 16.2889L24.5778 12.7333C23.7333 11.6889 22.4889 11.1111 21.1778 11.1111H18.8444C17.5333 11.1111 16.2889 11.6889 15.4444 12.7111L12.4666 16.2666C9.68887 19.6 6.08887 21.6444 1.91109 22.1111C0.799979 22.2444 -2.09808e-05 23.2 -2.09808e-05 24.3111C-2.09808e-05 25.6444 1.17776 26.6889 2.51109 26.5333C7.6222 25.9333 12.1111 23.4444 15.5555 19.4444V24.4444L7.19998 27.7778C5.75553 28.3555 4.6222 29.6222 4.46665 31.1778C4.41074 31.7309 4.4714 32.2896 4.6447 32.8178C4.81801 33.346 5.10012 33.832 5.47282 34.2445C5.84553 34.657 6.30056 34.9868 6.80857 35.2126C7.31657 35.4384 7.86627 35.5552 8.4222 35.5555H13.3333V34.4444C13.3333 32.971 13.9186 31.5579 14.9605 30.516C16.0024 29.4742 17.4154 28.8889 18.8889 28.8889H25.5555C26.1778 28.8889 26.6666 29.3778 26.6666 30C26.6666 30.6222 26.1778 31.1111 25.5555 31.1111H18.8889C17.0444 31.1111 15.5555 32.6 15.5555 34.4444V35.5555H31.3333C33.2222 35.5555 35 34.3555 35.4444 32.5111C35.9111 30.5333 34.8444 28.6 33.0444 27.8889L24.4444 24.4444V19.4444C27.9111 23.4444 32.3778 25.9111 37.4889 26.5333C38.8222 26.6666 40 25.6444 40 24.3111Z" fill="#22AED1"/>
</svg>
