<svg width="54" height="54" viewBox="0 0 54 54" fill="none" xmlns="http://www.w3.org/2000/svg">
<path d="M45 17.6V15.4382C45.0002 15.2493 44.9632 15.0621 44.891 14.8875C44.8188 14.7129 44.7129 14.5543 44.5793 14.4207C44.4457 14.2871 44.2871 14.1812 44.1125 14.109C43.9379 14.0368 43.7507 13.9998 43.5618 14H10.4418C10.2527 13.9998 10.0654 14.0368 9.8906 14.1089C9.7158 14.1811 9.55692 14.2869 9.42304 14.4205C9.28916 14.554 9.18289 14.7127 9.1103 14.8873C9.03772 15.0619 9.00024 15.2491 9 15.4382V17.6H12.6V21.2H9V24.8H12.6V28.4H9V32H12.6V35.6H9V37.7582C8.99976 37.9476 9.0369 38.1352 9.10927 38.3102C9.18164 38.4853 9.28784 38.6443 9.42177 38.7782C9.5557 38.9122 9.71473 39.0184 9.88977 39.0907C10.0648 39.1631 10.2524 39.2002 10.4418 39.2H43.5618C43.7509 39.1998 43.9381 39.1623 44.1127 39.0897C44.2873 39.0171 44.446 38.9108 44.5795 38.777C44.7131 38.6431 44.8189 38.4842 44.8911 38.3094C44.9632 38.1346 45.0002 37.9473 45 37.7582V35.6H41.4V32H45V28.4H41.4V24.8H45V21.2H41.4V17.6H45ZM23.4 32V21.2L32.4 26.6L23.4 32Z" fill="#8F8F8F"/>
<circle cx="27" cy="27" r="26.5" stroke="#7F7F7F"/>
</svg>
