<svg width="166" height="40" viewBox="0 0 166 40" fill="none" xmlns="http://www.w3.org/2000/svg">
<g filter="url(#filter0_ddddd_182_266)">
<path d="M71.4195 18.6786C70.2805 19.0291 69.1123 19.2043 67.9149 19.2043C63.5343 19.2043 61.344 17.0286 61.344 12.6771C61.344 8.55932 63.5343 6.50041 67.9149 6.50041C69.1123 6.50041 70.2805 6.67564 71.4195 7.02609V7.81461C70.2805 7.46415 69.1707 7.28893 68.0902 7.28893C64.206 7.28893 62.2639 9.085 62.2639 12.6771C62.2639 16.5029 64.206 18.4158 68.0902 18.4158C69.1707 18.4158 70.2805 18.2406 71.4195 17.8901V18.6786ZM71.4987 19.1167V6.58802H76.6678C78.9341 6.58802 80.0672 7.58973 80.0672 9.59315C80.0672 11.3279 78.8377 12.5574 76.3787 13.2817L80.6104 19.1167H79.3488L75.1872 13.3079V12.6859C77.7572 12.3062 79.0422 11.2987 79.0422 9.66324C79.0422 8.1563 78.2011 7.40283 76.5189 7.40283H72.4186V19.1167H71.4987ZM87.9528 6.58802V7.37654H80.6458V12.3705H87.6549V13.159H80.6458V18.3282H88.0754V19.1167H79.7259V6.58802H87.9528ZM87.9444 19.1167H86.9631L92.6317 6.58802H93.7268L99.4217 19.1167H98.3265L96.4691 14.9113H90.8531L91.1247 14.1228H96.1274L93.1223 7.30645L87.9444 19.1167ZM106.633 6.58802V7.37654H102.34V19.1167H101.42V7.37654H97.2142V6.58802H106.633ZM106.098 12.8173C106.098 16.5496 107.86 18.4158 111.382 18.4158C114.839 18.4158 116.568 16.5496 116.568 12.8173C116.568 9.13172 114.839 7.28893 111.382 7.28893C107.86 7.28893 106.098 9.13172 106.098 12.8173ZM105.091 12.8699C105.091 8.62357 107.188 6.50041 111.382 6.50041C115.511 6.50041 117.576 8.62357 117.576 12.8699C117.576 17.0928 115.511 19.2043 111.382 19.2043C107.188 19.2043 105.091 17.0928 105.091 12.8699ZM117.348 19.1167V6.58802H122.518C124.784 6.58802 125.917 7.58973 125.917 9.59315C125.917 11.3279 124.687 12.5574 122.228 13.2817L126.46 19.1167H125.199L121.037 13.3079V12.6859C123.607 12.3062 124.892 11.2987 124.892 9.66324C124.892 8.1563 124.051 7.40283 122.369 7.40283H118.268V19.1167H117.348Z" fill="white"/>
<path d="M5.85881 4.33915V17.4811H12.0793V20H2.95663V4.33915H5.85881ZM14.8282 13.8452V4.33915H17.7304V13.8452C17.7304 16.3422 19.0081 17.5906 21.5635 17.5906C24.1188 17.5906 25.3965 16.3422 25.3965 13.8452V4.33915H28.2987V13.8452C28.2987 18.0214 26.0536 20.1095 21.5635 20.1095C17.0733 20.1095 14.8282 18.0214 14.8282 13.8452ZM34.4864 4.33915V20H31.5842V4.33915H34.4864ZM45.5037 4.33915L38.8232 11.6439L46.2047 20H42.1854L36.1291 12.6843V10.8006L41.9554 4.33915H45.5037ZM47.037 19.3429V16.7145C48.6067 17.2986 50.3809 17.5906 52.3595 17.5906C54.7615 17.5906 55.9626 16.7875 55.9626 15.1813C55.9626 14.0131 55.2252 13.429 53.7503 13.429H51.2972C48.092 13.429 46.4894 11.9688 46.4894 9.04836C46.4894 5.83588 48.771 4.22964 53.3342 4.22964C55.0864 4.22964 56.7474 4.48518 58.3172 4.99625V7.62465C56.7474 7.04056 55.0864 6.74852 53.3342 6.74852C50.7058 6.74852 49.3916 7.51513 49.3916 9.04836C49.3916 10.2165 50.0268 10.8006 51.2972 10.8006H53.7503C57.1599 10.8006 58.8647 12.2608 58.8647 15.1813C58.8647 18.4668 56.6963 20.1095 52.3595 20.1095C50.3809 20.1095 48.6067 19.854 47.037 19.3429Z" fill="white"/>
</g>
<defs>
<filter id="filter0_ddddd_182_266" x="0.445662" y="0.881783" width="164.795" height="49.3594" filterUnits="userSpaceOnUse" color-interpolation-filters="sRGB">
<feFlood flood-opacity="0" result="BackgroundImageFix"/>
<feColorMatrix in="SourceAlpha" type="matrix" values="0 0 0 0 0 0 0 0 0 0 0 0 0 0 0 0 0 0 127 0" result="hardAlpha"/>
<feOffset dx="1.67398" dy="1.11598"/>
<feGaussianBlur stdDeviation="2.09247"/>
<feColorMatrix type="matrix" values="0 0 0 0 0 0 0 0 0 0 0 0 0 0 0 0 0 0 0.1 0"/>
<feBlend mode="normal" in2="BackgroundImageFix" result="effect1_dropShadow_182_266"/>
<feColorMatrix in="SourceAlpha" type="matrix" values="0 0 0 0 0 0 0 0 0 0 0 0 0 0 0 0 0 0 127 0" result="hardAlpha"/>
<feOffset dx="6.41691" dy="4.46394"/>
<feGaussianBlur stdDeviation="3.90595"/>
<feColorMatrix type="matrix" values="0 0 0 0 0 0 0 0 0 0 0 0 0 0 0 0 0 0 0.09 0"/>
<feBlend mode="normal" in2="effect1_dropShadow_182_266" result="effect2_dropShadow_182_266"/>
<feColorMatrix in="SourceAlpha" type="matrix" values="0 0 0 0 0 0 0 0 0 0 0 0 0 0 0 0 0 0 127 0" result="hardAlpha"/>
<feOffset dx="14.7868" dy="9.76486"/>
<feGaussianBlur stdDeviation="5.30093"/>
<feColorMatrix type="matrix" values="0 0 0 0 0 0 0 0 0 0 0 0 0 0 0 0 0 0 0.05 0"/>
<feBlend mode="normal" in2="effect2_dropShadow_182_266" result="effect3_dropShadow_182_266"/>
<feColorMatrix in="SourceAlpha" type="matrix" values="0 0 0 0 0 0 0 0 0 0 0 0 0 0 0 0 0 0 127 0" result="hardAlpha"/>
<feOffset dx="26.2256" dy="17.5768"/>
<feGaussianBlur stdDeviation="6.27741"/>
<feColorMatrix type="matrix" values="0 0 0 0 0 0 0 0 0 0 0 0 0 0 0 0 0 0 0.01 0"/>
<feBlend mode="normal" in2="effect3_dropShadow_182_266" result="effect4_dropShadow_182_266"/>
<feColorMatrix in="SourceAlpha" type="matrix" values="0 0 0 0 0 0 0 0 0 0 0 0 0 0 0 0 0 0 127 0" result="hardAlpha"/>
<feOffset dy="1.11598"/>
<feGaussianBlur stdDeviation="0.557992"/>
<feComposite in2="hardAlpha" operator="out"/>
<feColorMatrix type="matrix" values="0 0 0 0 0 0 0 0 0 0 0 0 0 0 0 0 0 0 0.25 0"/>
<feBlend mode="normal" in2="effect4_dropShadow_182_266" result="effect5_dropShadow_182_266"/>
<feBlend mode="normal" in="SourceGraphic" in2="effect5_dropShadow_182_266" result="shape"/>
</filter>
</defs>
</svg>
